<svg xmlns="http://www.w3.org/2000/svg" enable-background="new 0 0 48 48" viewBox="0 0 48 48"><path d="M25 33c4.96 0 9-4.04 9-9s-4.04-9-9-9-9 4.04-9 9S20.04 33 25 33zM25 17c3.86 0 7 3.14 7 7s-3.14 7-7 7-7-3.14-7-7S21.14 17 25 17zM4 7C3.45 7 3 7.45 3 8v9c0 1.65 1.35 3 3 3h1v20c0 .55.45 1 1 1s1-.45 1-1V20h1c1.65 0 3-1.35 3-3V8c0-.55-.45-1-1-1s-1 .45-1 1v9c0 .55-.45 1-1 1H9V8c0-.55-.45-1-1-1S7 7.45 7 8v10H6c-.55 0-1-.45-1-1V8C5 7.45 4.55 7 4 7zM44.47 7.12c-.32-.17-.72-.15-1.03.05C39.34 9.91 39 14.43 39 19.21V28c0 .55.45 1 1 1h3v11c0 .55.45 1 1 1s1-.45 1-1V8C45 7.63 44.8 7.29 44.47 7.12zM43 27h-2v-7.79c0-3.68.17-6.78 2-8.99V27z"/><path d="M25,36c6.62,0,12-5.38,12-12s-5.38-12-12-12s-12,5.38-12,12S18.38,36,25,36z M25,14c5.51,0,10,4.49,10,10s-4.49,10-10,10
		s-10-4.49-10-10S19.49,14,25,14z"/></svg>